<?xml version="1.0" encoding="UTF-8" standalone="no"?>
<svg
   id="Layer_1"
   viewBox="0 0 228.72014 81.320002"
   version="1.1"
   sodipodi:docname="amplify-bands-color.svg"
   inkscape:version="1.2.1 (9c6d41e410, 2022-07-14)"
   width="228.72014"
   height="81.32"
   xmlns:inkscape="http://www.inkscape.org/namespaces/inkscape"
   xmlns:sodipodi="http://sodipodi.sourceforge.net/DTD/sodipodi-0.dtd"
   xmlns="http://www.w3.org/2000/svg"
   xmlns:svg="http://www.w3.org/2000/svg">
  <sodipodi:namedview
     id="namedview401"
     pagecolor="#505050"
     bordercolor="#ffffff"
     borderopacity="1"
     inkscape:showpageshadow="0"
     inkscape:pageopacity="0"
     inkscape:pagecheckerboard="1"
     inkscape:deskcolor="#505050"
     showgrid="false"
     inkscape:zoom="5.2903113"
     inkscape:cx="114.36"
     inkscape:cy="70.884298"
     inkscape:window-width="3440"
     inkscape:window-height="1369"
     inkscape:window-x="1432"
     inkscape:window-y="313"
     inkscape:window-maximized="1"
     inkscape:current-layer="Layer_1" />
  <defs
     id="defs370">
    <style
       id="style368">.cls-1{fill:#fff;}.cls-2{fill:#f0f;}.cls-3{fill:#80f;}.cls-4{fill:#c400ff;}.cls-5{fill:#10f;}.cls-6{fill:#4d00ff;}</style>
  </defs>
  <g
     id="g382"
     transform="translate(1.4185558e-4)">
    <path
       class="cls-5"
       d="M 150.93,81.32 C 132.2,81.32 112.17,75.64 83.76,54.92 61.24,38.51 49.41,46.5 35.15,59.56 20.7,72.8 1.96,72.76 1.15,72.79 0.51,72.79 -0.01,72.26 0,71.62 0,70.98 0.53,70.46 1.17,70.46 h 0.02 c 0.51,0 18.76,-0.13 32.39,-12.62 14.6,-13.38 27.66,-22.22 51.55,-4.8 43.48,31.7 67,27.55 96.77,22.29 12.93,-2.28 27.59,-4.87 45.6,-4.87 0.64,0 1.17,0.52 1.17,1.17 0,0.65 -0.52,1.17 -1.17,1.17 -17.81,0 -32.36,2.57 -45.19,4.83 -10.87,1.92 -20.92,3.69 -31.37,3.69 z"
       id="path372" />
    <path
       class="cls-6"
       d="m 175.8,75.04 c -7.22,0 -14.17,-0.48 -21.13,-1.89 C 136.53,69.48 120.88,59.89 99.21,46.61 96.66,45.05 94.03,43.44 91.3,41.78 75.52,32.94 65.27,41.32 54.41,50.19 c -1.33,1.09 -2.66,2.18 -3.99,3.22 -1.95,1.54 -3.87,3.06 -5.79,4.59 l -3.91,3.11 C 30.93,68.87 17.62,72.81 1.16,72.81 0.52,72.79 0,72.27 0,71.63 c 0,-0.64 0.52,-1.17 1.17,-1.17 15.93,0 28.75,-3.77 38.12,-11.19 l 3.9,-3.1 c 1.92,-1.53 3.84,-3.05 5.8,-4.6 1.32,-1.04 2.64,-2.12 3.96,-3.19 10.98,-8.97 22.34,-18.25 39.54,-8.62 2.77,1.68 5.4,3.3 7.95,4.86 21.46,13.15 36.97,22.66 54.7,26.25 13.73,2.78 27.58,1.87 43.63,0.81 9.08,-0.6 18.47,-1.21 28.74,-1.21 0.64,0 1.17,0.52 1.17,1.17 0,0.65 -0.52,1.17 -1.17,1.17 -10.19,0 -19.55,0.62 -28.59,1.21 -8.17,0.54 -15.78,1.04 -23.12,1.04 z"
       id="path374" />
    <path
       class="cls-3"
       d="m 214.04,72.83 c -20.26,0 -39.43,-0.66 -56.95,-7.9 C 146.22,60.44 137.4,53.92 128.07,47.02 119.26,40.5 110.14,33.77 98.91,28.63 86.46,23.87 77.05,34.06 67.94,43.91 64.56,47.57 61.07,51.34 57.5,54.23 53.67,57.36 50.11,60.03 46.32,62.63 33.31,71.56 16.93,72.79 1.18,72.79 0.52,72.79 0,72.27 0,71.63 c 0,-0.64 0.52,-1.17 1.17,-1.17 15.38,0 31.34,-1.18 43.83,-9.76 3.74,-2.56 7.25,-5.2 11.03,-8.28 3.44,-2.78 6.72,-6.33 10.2,-10.09 9.64,-10.42 19.6,-21.19 33.58,-15.85 11.52,5.27 20.74,12.08 29.65,18.66 9.22,6.82 17.92,13.25 28.53,17.63 19.04,7.86 40.32,7.79 62.85,7.7 l 6.69,-0.02 c 0.64,0 1.17,0.52 1.17,1.17 0,0.65 -0.52,1.17 -1.17,1.17 l -6.69,0.02 c -2.28,0 -4.55,0.02 -6.8,0.02 z"
       id="path376" />
    <path
       class="cls-4"
       d="m 227.54,72.79 c -27.83,0 -50.7,-5.42 -67.99,-16.1 C 149.9,50.72 142.47,43.27 135.29,36.06 126.25,26.98 117.71,18.41 106.56,15.49 95.92,13.44 87.3,25.68 78.96,37.55 74.37,44.09 69.62,50.85 64.56,55.06 59.95,58.91 56.03,61.72 51.88,64.15 39.58,71.37 23.97,72.79 1.16,72.79 0.52,72.79 0,72.27 0,71.63 c 0,-0.64 0.52,-1.17 1.17,-1.17 22.41,0 37.7,-1.36 49.54,-8.31 4.04,-2.37 7.85,-5.11 12.37,-8.88 4.83,-4.01 9.48,-10.64 13.99,-17.06 8.76,-12.48 17.82,-25.37 30.02,-22.99 11.83,3.1 20.59,11.89 29.86,21.19 7.09,7.11 14.41,14.47 23.83,20.29 16.91,10.45 39.38,15.76 66.76,15.76 0.64,0 1.17,0.52 1.17,1.17 0,0.65 -0.52,1.17 -1.17,1.17 z"
       id="path378" />
    <path
       class="cls-2"
       d="m 227.55,72.79 c -17.81,0 -44.98,-7.53 -65.51,-24.34 -9.69,-7.94 -16.76,-17.38 -23,-25.71 C 130.5,11.33 123.75,2.33 114.32,2.33 104.89,2.33 96.73,16.76 88.96,30.72 83.52,40.47 77.9,50.56 71.62,55.9 55.98,69.19 45.45,72.8 1.15,72.8 0.52,72.79 0,72.27 0,71.63 0,70.99 0.52,70.46 1.17,70.46 47.05,70.46 55.6,66.47 70.13,54.12 76.09,49.06 81.6,39.16 86.94,29.59 95.04,15.04 103.41,0 114.33,0 c 10.92,0 17.65,9.42 26.58,21.35 6.16,8.22 13.14,17.55 22.61,25.3 19.97,16.36 47.19,23.82 64.03,23.82 0.64,0 1.17,0.52 1.17,1.17 0,0.65 -0.52,1.17 -1.17,1.17 z"
       id="path380" />
  </g>
</svg>
