<?xml version="1.0" encoding="UTF-8" standalone="no"?>
<!-- Generator: Adobe Illustrator 26.3.1, SVG Export Plug-In . SVG Version: 6.00 Build 0)  -->

<svg
   version="1.1"
   id="Layer_1"
   x="0px"
   y="0px"
   viewBox="0 0 221.11 62.599998"
   xml:space="preserve"
   sodipodi:docname="Amplify - Text Logo (RGB Reverse).svg"
   width="221.11"
   height="62.599998"
   inkscape:version="1.3.2 (091e20e, 2023-11-25, custom)"
   xmlns:inkscape="http://www.inkscape.org/namespaces/inkscape"
   xmlns:sodipodi="http://sodipodi.sourceforge.net/DTD/sodipodi-0.dtd"
   xmlns="http://www.w3.org/2000/svg"
   xmlns:svg="http://www.w3.org/2000/svg"><defs
   id="defs15" /><sodipodi:namedview
   id="namedview15"
   pagecolor="#505050"
   bordercolor="#ffffff"
   borderopacity="1"
   inkscape:showpageshadow="0"
   inkscape:pageopacity="0"
   inkscape:pagecheckerboard="1"
   inkscape:deskcolor="#d1d1d1"
   inkscape:zoom="6.4372736"
   inkscape:cx="110.91652"
   inkscape:cy="-28.428184"
   inkscape:window-width="1718"
   inkscape:window-height="1360"
   inkscape:window-x="3153"
   inkscape:window-y="321"
   inkscape:window-maximized="0"
   inkscape:current-layer="g15" />
<style
   type="text/css"
   id="style1">
	.st0{fill:#0000FF;}
	.st1{fill:#4000FF;}
	.st2{fill:#8000FF;}
	.st3{fill:#C000FF;}
	.st4{fill:#FF00FF;}
	.st5{fill:#FFFFFF;}
</style>
<g
   id="g15"
   transform="translate(-33.73,-119.62)">
	
	<g
   id="g14">
		<g
   id="g13">
			<g
   id="g12">
				<path
   class="st5"
   d="m 54,136.2 c 1.78,0.65 3.2,1.56 4.26,2.73 1.06,1.17 1.82,2.59 2.28,4.26 0.45,1.67 0.68,3.5 0.68,5.49 v 20.61 c -1.21,0.26 -3.04,0.57 -5.49,0.94 -2.45,0.37 -5.21,0.55 -8.29,0.55 -2.04,0 -3.9,-0.19 -5.59,-0.58 -1.69,-0.39 -3.13,-1.02 -4.32,-1.88 -1.19,-0.87 -2.12,-1.99 -2.79,-3.38 -0.67,-1.39 -1.01,-3.1 -1.01,-5.14 0,-1.95 0.38,-3.6 1.14,-4.94 0.76,-1.34 1.79,-2.44 3.09,-3.28 1.3,-0.84 2.81,-1.45 4.52,-1.82 1.71,-0.37 3.5,-0.55 5.36,-0.55 0.87,0 1.78,0.05 2.73,0.16 0.95,0.11 1.97,0.29 3.06,0.55 v -1.3 c 0,-0.91 -0.11,-1.78 -0.33,-2.6 -0.22,-0.82 -0.6,-1.55 -1.14,-2.18 -0.54,-0.63 -1.26,-1.12 -2.15,-1.46 -0.89,-0.35 -2,-0.52 -3.35,-0.52 -1.82,0 -3.49,0.13 -5,0.39 -1.52,0.26 -2.75,0.56 -3.71,0.91 l -0.97,-6.37 c 1,-0.35 2.45,-0.69 4.35,-1.04 1.91,-0.35 3.94,-0.52 6.11,-0.52 2.59,0 4.78,0.32 6.56,0.97 z m -0.39,27.95 v -8.71 c -0.43,-0.13 -1.06,-0.26 -1.89,-0.39 -0.83,-0.13 -1.73,-0.19 -2.73,-0.19 -0.87,0 -1.74,0.06 -2.63,0.19 -0.89,0.13 -1.69,0.37 -2.41,0.71 -0.72,0.34 -1.29,0.83 -1.72,1.46 -0.43,0.63 -0.65,1.42 -0.65,2.37 0,1.86 0.58,3.15 1.75,3.87 1.17,0.71 2.75,1.07 4.75,1.07 2.43,0.01 4.27,-0.12 5.53,-0.38 z"
   id="path6" />
				<path
   class="st5"
   d="m 87.89,144.49 c -0.89,-1.58 -2.55,-2.37 -4.97,-2.37 -0.87,0 -1.82,0.06 -2.86,0.2 -1.04,0.13 -1.82,0.24 -2.34,0.32 v 27.43 h -7.87 v -32.89 c 1.52,-0.43 3.5,-0.85 5.95,-1.24 2.45,-0.39 5.04,-0.58 7.77,-0.58 2.34,0 4.26,0.3 5.75,0.91 1.49,0.61 2.74,1.41 3.74,2.41 0.48,-0.35 1.08,-0.72 1.82,-1.1 0.74,-0.39 1.56,-0.75 2.47,-1.07 0.91,-0.32 1.87,-0.6 2.89,-0.81 1.02,-0.21 2.05,-0.33 3.09,-0.33 2.64,0 4.82,0.38 6.53,1.14 1.71,0.76 3.05,1.82 4.03,3.19 0.98,1.37 1.65,3.01 2.02,4.94 0.37,1.93 0.55,4.04 0.55,6.34 v 19.11 h -7.87 v -17.88 c 0,-3.55 -0.43,-6.12 -1.3,-7.7 -0.87,-1.58 -2.54,-2.37 -5,-2.37 -1.26,0 -2.45,0.21 -3.58,0.62 -1.13,0.41 -1.97,0.81 -2.54,1.2 0.35,1.08 0.58,2.23 0.71,3.44 0.13,1.21 0.2,2.51 0.2,3.9 v 18.79 h -7.87 v -17.88 c 0.02,-3.57 -0.43,-6.14 -1.32,-7.72 z"
   id="path7" />
				<path
   class="st5"
   d="m 154.72,160.25 c -0.67,2.17 -1.64,4.03 -2.89,5.59 -1.26,1.56 -2.83,2.77 -4.71,3.64 -1.89,0.87 -4.02,1.3 -6.4,1.3 -1.6,0 -3.08,-0.19 -4.42,-0.58 -1.34,-0.39 -2.45,-0.82 -3.32,-1.3 v 13.2 h -7.87 v -44.92 c 1.6,-0.43 3.58,-0.85 5.92,-1.24 2.34,-0.39 4.81,-0.58 7.41,-0.58 2.69,0 5.09,0.41 7.21,1.24 2.12,0.82 3.93,2 5.43,3.54 1.5,1.54 2.64,3.4 3.45,5.59 0.81,2.19 1.2,4.65 1.2,7.38 -0.01,2.59 -0.34,4.98 -1.01,7.14 z m -9.43,-15.21 c -1.58,-1.95 -4.13,-2.93 -7.64,-2.93 -0.74,0 -1.51,0.03 -2.31,0.1 -0.8,0.07 -1.59,0.21 -2.37,0.42 v 19.44 c 0.69,0.48 1.61,0.92 2.76,1.33 1.15,0.41 2.37,0.62 3.67,0.62 2.86,0 4.95,-0.98 6.27,-2.92 1.32,-1.95 1.98,-4.57 1.98,-7.87 0.01,-3.51 -0.78,-6.24 -2.36,-8.19 z"
   id="path8" />
				<path
   class="st5"
   d="m 169.08,169.94 c -1.54,-0.48 -2.76,-1.16 -3.67,-2.05 -0.91,-0.89 -1.55,-1.99 -1.92,-3.31 -0.37,-1.32 -0.55,-2.83 -0.55,-4.52 v -39.13 l 7.87,-1.3 v 38.94 c 0,0.95 0.08,1.75 0.23,2.4 0.15,0.65 0.42,1.2 0.81,1.66 0.39,0.46 0.92,0.8 1.59,1.04 0.67,0.24 1.53,0.42 2.57,0.55 l -1.1,6.5 c -2.35,-0.04 -4.29,-0.3 -5.83,-0.78 z"
   id="path9" />
				<path
   class="st5"
   d="m 190.04,129.64 c -0.95,0.87 -2.08,1.3 -3.38,1.3 -1.34,0 -2.49,-0.43 -3.45,-1.3 -0.96,-0.87 -1.43,-2.04 -1.43,-3.51 0,-1.52 0.48,-2.71 1.43,-3.58 0.95,-0.87 2.1,-1.3 3.45,-1.3 1.3,0 2.43,0.43 3.38,1.3 0.95,0.87 1.43,2.06 1.43,3.58 0,1.47 -0.48,2.64 -1.43,3.51 z m -7.28,40.43 v -34 h 7.87 v 34 z"
   id="path10" />
				<path
   class="st5"
   d="m 219.29,120.11 c 1.39,0.33 2.43,0.62 3.12,0.88 l -1.5,6.5 c -0.74,-0.35 -1.59,-0.63 -2.57,-0.85 -0.98,-0.22 -2.03,-0.32 -3.15,-0.32 -1.26,0 -2.32,0.18 -3.18,0.55 -0.87,0.37 -1.56,0.88 -2.08,1.53 -0.52,0.65 -0.89,1.44 -1.11,2.37 -0.22,0.93 -0.33,1.94 -0.33,3.02 v 2.28 h 12.35 v 6.56 H 208.5 v 27.43 h -7.87 v -36.4 c 0,-4.38 1.15,-7.81 3.45,-10.3 2.3,-2.49 5.76,-3.74 10.4,-3.74 1.82,0.01 3.42,0.17 4.81,0.49 z"
   id="path11" />
				<path
   class="st5"
   d="m 242.62,171.17 c -0.87,1.95 -1.75,3.62 -2.67,5.01 -0.92,1.39 -1.93,2.54 -3.06,3.44 -1.13,0.91 -2.38,1.57 -3.77,1.98 -1.39,0.41 -2.99,0.62 -4.81,0.62 -1.21,0 -2.42,-0.13 -3.61,-0.39 -1.19,-0.26 -2.09,-0.54 -2.7,-0.85 l 1.43,-6.31 c 1.56,0.61 3.1,0.91 4.62,0.91 2.04,0 3.63,-0.49 4.78,-1.46 1.15,-0.97 2.16,-2.48 3.02,-4.52 -2.47,-4.77 -4.84,-9.97 -7.12,-15.6 -2.28,-5.63 -4.3,-11.61 -6.08,-17.94 h 8.39 c 0.43,1.82 0.96,3.79 1.59,5.92 0.63,2.12 1.31,4.28 2.05,6.47 0.74,2.19 1.52,4.37 2.34,6.53 0.82,2.16 1.65,4.18 2.47,6.05 1.39,-3.86 2.69,-7.96 3.9,-12.32 1.21,-4.35 2.32,-8.57 3.32,-12.64 h 8.13 c -3.51,12.92 -7.58,24.62 -12.22,35.1 z"
   id="path12" />
			</g>
		</g>
	</g>
</g>
</svg>
