<?xml version="1.0" encoding="UTF-8"?><svg id="Layer_1" xmlns="http://www.w3.org/2000/svg" viewBox="0 0 228.72 141.73"><defs><style>.cls-1{fill:#f0f;}.cls-2{fill:#80f;}.cls-3{fill:#c400ff;}.cls-4{fill:#333258;}.cls-5{fill:#10f;}.cls-6{fill:#4d00ff;}</style></defs><g><path class="cls-5" d="M150.93,81.32c-18.73,0-38.76-5.68-67.17-26.4-22.52-16.41-34.35-8.42-48.61,4.64C20.7,72.8,1.96,72.76,1.15,72.79c-.64,0-1.16-.53-1.15-1.17,0-.64,.53-1.16,1.17-1.16h.02c.51,0,18.76-.13,32.39-12.62,14.6-13.38,27.66-22.22,51.55-4.8,43.48,31.7,67,27.55,96.77,22.29,12.93-2.28,27.59-4.87,45.6-4.87,.64,0,1.17,.52,1.17,1.17s-.52,1.17-1.17,1.17c-17.81,0-32.36,2.57-45.19,4.83-10.87,1.92-20.92,3.69-31.37,3.69Z"/><path class="cls-6" d="M175.8,75.04c-7.22,0-14.17-.48-21.13-1.89-18.14-3.67-33.79-13.26-55.46-26.54-2.55-1.56-5.18-3.17-7.91-4.83-15.78-8.84-26.03-.46-36.89,8.41-1.33,1.09-2.66,2.18-3.99,3.22-1.95,1.54-3.87,3.06-5.79,4.59l-3.91,3.11c-9.79,7.76-23.1,11.7-39.56,11.7C.52,72.79,0,72.27,0,71.63s.52-1.17,1.17-1.17c15.93,0,28.75-3.77,38.12-11.19l3.9-3.1c1.92-1.53,3.84-3.05,5.8-4.6,1.32-1.04,2.64-2.12,3.96-3.19,10.98-8.97,22.34-18.25,39.54-8.62,2.77,1.68,5.4,3.3,7.95,4.86,21.46,13.15,36.97,22.66,54.7,26.25,13.73,2.78,27.58,1.87,43.63,.81,9.08-.6,18.47-1.21,28.74-1.21,.64,0,1.17,.52,1.17,1.17s-.52,1.17-1.17,1.17c-10.19,0-19.55,.62-28.59,1.21-8.17,.54-15.78,1.04-23.12,1.04Z"/><path class="cls-2" d="M214.04,72.83c-20.26,0-39.43-.66-56.95-7.9-10.87-4.49-19.69-11.01-29.02-17.91-8.81-6.52-17.93-13.25-29.16-18.39-12.45-4.76-21.86,5.43-30.97,15.28-3.38,3.66-6.87,7.43-10.44,10.32-3.83,3.13-7.39,5.8-11.18,8.4-13.01,8.93-29.39,10.16-45.14,10.16C.52,72.79,0,72.27,0,71.63s.52-1.17,1.17-1.17c15.38,0,31.34-1.18,43.83-9.76,3.74-2.56,7.25-5.2,11.03-8.28,3.44-2.78,6.72-6.33,10.2-10.09,9.64-10.42,19.6-21.19,33.58-15.85,11.52,5.27,20.74,12.08,29.65,18.66,9.22,6.82,17.92,13.25,28.53,17.63,19.04,7.86,40.32,7.79,62.85,7.7l6.69-.02c.64,0,1.17,.52,1.17,1.17s-.52,1.17-1.17,1.17l-6.69,.02c-2.28,0-4.55,.02-6.8,.02Z"/><path class="cls-3" d="M227.54,72.79c-27.83,0-50.7-5.42-67.99-16.1-9.65-5.97-17.08-13.42-24.26-20.63-9.04-9.08-17.58-17.65-28.73-20.57-10.64-2.05-19.26,10.19-27.6,22.06-4.59,6.54-9.34,13.3-14.4,17.51-4.61,3.85-8.53,6.66-12.68,9.09-12.3,7.22-27.91,8.64-50.72,8.64C.52,72.79,0,72.27,0,71.63s.52-1.17,1.17-1.17c22.41,0,37.7-1.36,49.54-8.31,4.04-2.37,7.85-5.11,12.37-8.88,4.83-4.01,9.48-10.64,13.99-17.06,8.76-12.48,17.82-25.37,30.02-22.99,11.83,3.1,20.59,11.89,29.86,21.19,7.09,7.11,14.41,14.47,23.83,20.29,16.91,10.45,39.38,15.76,66.76,15.76,.64,0,1.17,.52,1.17,1.17s-.52,1.17-1.17,1.17Z"/><path class="cls-1" d="M227.55,72.79c-17.81,0-44.98-7.53-65.51-24.34-9.69-7.94-16.76-17.38-23-25.71-8.54-11.41-15.29-20.41-24.72-20.41s-17.59,14.43-25.36,28.39c-5.44,9.75-11.06,19.84-17.34,25.18-15.64,13.29-26.17,16.9-70.47,16.9C.52,72.79,0,72.27,0,71.63s.52-1.17,1.17-1.17c45.88,0,54.43-3.99,68.96-16.34,5.96-5.06,11.47-14.96,16.81-24.53C95.04,15.04,103.41,0,114.33,0s17.65,9.42,26.58,21.35c6.16,8.22,13.14,17.55,22.61,25.3,19.97,16.36,47.19,23.82,64.03,23.82,.64,0,1.17,.52,1.17,1.17s-.52,1.17-1.17,1.17Z"/></g><g><path class="cls-4" d="M37.02,105.78c1.99,0,3.66,.25,5.02,.75s2.45,1.19,3.26,2.09c.81,.9,1.39,1.98,1.74,3.26,.35,1.28,.52,2.68,.52,4.2v15.76c-.93,.2-2.33,.44-4.2,.72s-3.98,.42-6.34,.42c-1.56,0-2.98-.15-4.28-.45-1.29-.3-2.39-.78-3.3-1.44-.91-.66-1.62-1.53-2.14-2.59-.51-1.06-.77-2.37-.77-3.93s.29-2.75,.87-3.78c.58-1.03,1.37-1.86,2.36-2.51,1-.65,2.15-1.11,3.46-1.39,1.31-.28,2.68-.42,4.1-.42,.66,0,1.36,.04,2.09,.12,.73,.08,1.51,.22,2.34,.42v-1c0-.69-.08-1.36-.25-1.99-.17-.63-.46-1.18-.87-1.67-.41-.48-.96-.85-1.64-1.12-.68-.26-1.54-.4-2.56-.4-1.39,0-2.67,.1-3.83,.3-1.16,.2-2.11,.43-2.83,.69l-.74-4.87c.76-.26,1.87-.53,3.33-.8,1.46-.26,3.02-.4,4.67-.4Zm.5,22.42c1.86,0,3.27-.1,4.23-.3v-6.66c-.33-.1-.81-.2-1.44-.3-.63-.1-1.33-.15-2.09-.15-.66,0-1.34,.05-2.01,.15-.68,.1-1.29,.28-1.84,.55-.55,.26-.99,.64-1.32,1.12-.33,.48-.5,1.09-.5,1.81,0,1.43,.45,2.41,1.34,2.96s2.11,.82,3.63,.82Z"/><path class="cls-4" d="M69.73,118.76c0-2.72-.34-4.68-1.02-5.89s-1.95-1.81-3.8-1.81c-.66,0-1.39,.05-2.19,.15s-1.39,.18-1.79,.25v20.98h-6.01v-25.16c1.16-.33,2.67-.65,4.55-.95,1.87-.3,3.85-.45,5.94-.45,1.79,0,3.26,.23,4.4,.69,1.14,.46,2.09,1.08,2.86,1.84,.36-.27,.83-.55,1.39-.85,.56-.3,1.2-.57,1.89-.82s1.43-.46,2.21-.62,1.57-.25,2.36-.25c2.02,0,3.69,.29,5,.87,1.31,.58,2.34,1.39,3.08,2.43,.74,1.05,1.26,2.31,1.54,3.78,.28,1.47,.42,3.09,.42,4.85v14.62h-6.02v-13.67c0-2.72-.33-4.68-.99-5.89-.66-1.21-1.94-1.81-3.83-1.81-.96,0-1.87,.16-2.73,.47-.86,.31-1.51,.62-1.94,.92,.26,.83,.45,1.71,.55,2.63,.1,.93,.15,1.92,.15,2.98v14.37h-6.01v-13.67Z"/><path class="cls-4" d="M121.34,119.46c0,1.99-.25,3.81-.77,5.47-.51,1.66-1.25,3.08-2.21,4.28s-2.16,2.12-3.6,2.79c-1.44,.66-3.08,.99-4.9,.99-1.23,0-2.35-.15-3.38-.45-1.03-.3-1.88-.63-2.54-1v10.09h-6.01v-34.36c1.23-.33,2.73-.65,4.52-.95,1.79-.3,3.68-.45,5.67-.45s3.9,.32,5.52,.94c1.62,.63,3.01,1.54,4.15,2.71,1.14,1.18,2.02,2.6,2.63,4.28,.61,1.68,.92,3.56,.92,5.64Zm-6.16,.1c0-2.69-.61-4.77-1.81-6.27-1.21-1.49-3.16-2.24-5.84-2.24-.56,0-1.15,.02-1.77,.07-.61,.05-1.22,.16-1.81,.32v14.87c.53,.36,1.24,.7,2.11,1.02,.88,.32,1.81,.47,2.81,.47,2.19,0,3.79-.74,4.8-2.24s1.52-3.5,1.52-6.01Z"/><path class="cls-4" d="M136.61,132.93c-1.79-.03-3.27-.23-4.45-.6s-2.11-.89-2.81-1.57c-.69-.68-1.18-1.52-1.47-2.53-.28-1.01-.42-2.16-.42-3.46v-29.93l6.01-1v29.78c0,.73,.06,1.34,.18,1.84,.12,.5,.32,.92,.62,1.27,.3,.35,.7,.61,1.22,.8,.51,.18,1.17,.32,1.96,.42l-.85,4.97Z"/><path class="cls-4" d="M149.04,98.82c0,1.13-.36,2.02-1.09,2.69-.73,.66-1.59,1-2.59,1s-1.91-.33-2.63-1c-.73-.66-1.1-1.56-1.1-2.69s.36-2.07,1.1-2.73c.73-.66,1.61-.99,2.63-.99s1.86,.33,2.59,.99c.73,.66,1.09,1.57,1.09,2.73Zm-.65,33.61h-6.01v-26h6.01v26Z"/><path class="cls-4" d="M166.64,93.85c1.39,0,2.62,.12,3.68,.37,1.06,.25,1.85,.47,2.39,.67l-1.14,4.97c-.56-.26-1.22-.48-1.96-.65-.75-.16-1.55-.25-2.41-.25-.96,0-1.78,.14-2.44,.42-.66,.28-1.19,.67-1.59,1.17-.4,.5-.68,1.1-.84,1.81-.17,.71-.25,1.48-.25,2.31v1.74h9.45v5.02h-9.45v20.98h-6.01v-27.84c0-3.35,.88-5.98,2.63-7.88s4.41-2.86,7.95-2.86Z"/><path class="cls-4" d="M197.16,106.43c-2.68,9.88-5.79,18.83-9.33,26.85-.66,1.49-1.34,2.76-2.04,3.83-.69,1.06-1.47,1.94-2.34,2.63-.86,.7-1.83,1.2-2.89,1.52s-2.29,.47-3.68,.47c-.93,0-1.85-.1-2.76-.3-.91-.2-1.6-.42-2.06-.65l1.09-4.83c1.2,.46,2.38,.7,3.55,.7,1.56,0,2.79-.37,3.67-1.12s1.66-1.9,2.32-3.46c-1.9-3.64-3.72-7.62-5.47-11.93s-3.3-8.88-4.67-13.72h6.42c.33,1.39,.74,2.9,1.22,4.52s1.01,3.27,1.57,4.95c.56,1.68,1.17,3.34,1.8,5s1.27,3.2,1.9,4.62c1.06-2.95,2.05-6.09,2.97-9.42,.92-3.33,1.76-6.55,2.52-9.67h6.21Z"/></g></svg>