<?xml version="1.0" encoding="utf-8"?>
<!-- Generator: Adobe Illustrator 26.3.1, SVG Export Plug-In . SVG Version: 6.00 Build 0)  -->
<svg version="1.1" id="Layer_1" xmlns="http://www.w3.org/2000/svg" xmlns:xlink="http://www.w3.org/1999/xlink" x="0px" y="0px"
	 viewBox="0 0 289.13 182.22" style="enable-background:new 0 0 289.13 182.22;" xml:space="preserve">
<style type="text/css">
	.st0{fill:#0000FF;}
	.st1{fill:#4000FF;}
	.st2{fill:#8000FF;}
	.st3{fill:#C000FF;}
	.st4{fill:#FF00FF;}
	.st5{fill:#FFFFFF;}
</style>
<g>
	<g>
		<g>
			<path class="st0" d="M195.8,102.05c-3.44,0-7.05-0.11-10.88-0.36c-31.9-2.09-56.94-18.56-79.04-33.08l-3.68-2.42
				c-25.96-16.99-38.03-6.9-53.32,5.88c-2.09,1.75-4.25,3.55-6.5,5.34C24.16,91.83,2.41,92.13,1.49,92.14c0,0-0.01,0-0.01,0
				c-0.82,0-1.48-0.66-1.48-1.48c-0.01-0.82,0.65-1.49,1.47-1.5c0.21,0,21.67-0.32,39.06-14.1c2.22-1.76,4.37-3.55,6.44-5.29
				c15.59-13.03,29.05-24.29,56.85-6.09l3.69,2.42c21.79,14.32,46.49,30.56,77.61,32.6c19.97,1.31,33.92-1.22,48.68-3.9
				c14.15-2.57,30.2-5.48,53.85-5.41c0.82,0,1.48,0.67,1.48,1.49c0,0.82-0.67,1.48-1.48,1.48c-0.3-0.05-0.58,0-0.87,0
				c-22.9,0-37.92,2.72-52.44,5.36C222.2,99.95,210.61,102.05,195.8,102.05z"/>
		</g>
		<g>
			<path class="st1" d="M225.19,96.16c-10.03,0-20.81-0.9-33.39-3.59c-22.27-4.76-39.16-16.54-54.07-26.93
				c-8.26-5.76-16.06-11.2-24.25-15.24C91.52,39.59,81.36,49.72,67.3,63.76c-4.11,4.1-8.36,8.34-13.29,12.42
				C33.93,92.75,2.76,92.16,1.45,92.14c-0.82-0.02-1.47-0.7-1.45-1.52c0.02-0.82,0.68-1.45,1.52-1.45
				c0.31,0.01,31.39,0.57,50.61-15.28c4.82-3.99,9.02-8.18,13.08-12.23c13.8-13.78,25.72-25.67,49.58-13.91
				c8.39,4.13,16.28,9.64,24.64,15.46c15.39,10.73,31.31,21.83,52.99,26.47c24.55,5.24,42.23,3.55,60.95,1.76
				c10.53-1.01,21.43-2.06,34.29-2.01c0.82,0,1.48,0.67,1.48,1.49c0,0.82-0.67,1.48-1.48,1.48c-0.24,0.02-0.46,0-0.68,0
				c-12.43,0-23.04,1.02-33.32,2C244.24,95.29,235.08,96.16,225.19,96.16z"/>
		</g>
		<g>
			<path class="st2" d="M255.99,93.14c-16.51,0-35.07-1.63-57.31-9.7c-18.77-6.81-32-18.31-43.67-28.45
				c-9.9-8.6-19.24-16.73-30.23-20.36c-18.64-6.16-27.55,4.69-39.89,19.7c-5.41,6.58-11.54,14.05-19.25,20.63
				c-11.5,9.8-28.38,13.95-40.51,15.7c-13.07,1.89-23.29,1.49-23.72,1.48C0.6,92.1-0.03,91.41,0,90.59
				c0.03-0.82,0.73-1.47,1.54-1.43c0.41,0.02,41.13,1.46,62.18-16.47c7.51-6.42,13.55-13.77,18.88-20.26
				C94.71,37.71,105.16,25,125.72,31.8c11.55,3.82,21.12,12.14,31.25,20.94c11.47,9.98,24.48,21.28,42.73,27.9
				c29.51,10.7,52.57,9.86,72.91,9.12c5.22-0.19,10.16-0.39,15.04-0.36c0.82,0,1.48,0.67,1.48,1.49c0,0.82-0.67,1.48-1.48,1.48
				c-0.2,0.04-0.37,0-0.55,0c-4.65,0-9.38,0.17-14.38,0.35C267.35,92.93,261.8,93.14,255.99,93.14z"/>
		</g>
		<g>
			<path class="st3" d="M287.65,92.39C287.65,92.39,287.65,92.39,287.65,92.39l-1.51,0c-13.56,0-45.31-0.02-80.53-18.09
				c-17.26-8.86-28.4-21.33-38.22-32.33c-10.1-11.31-18.82-21.07-31.24-23.15c-15.91-2.65-24.11,9.58-34.5,25.08
				c-6.48,9.67-13.83,20.62-24.36,29.85c-10.02,8.76-25.85,14.52-47.06,17.11c-15.7,1.92-28.68,1.29-28.81,1.28
				C0.59,92.1-0.04,91.4,0,90.58s0.74-1.44,1.56-1.41c0.51,0.03,50.89,2.35,73.77-17.66c10.24-8.97,17.47-19.76,23.85-29.27
				c10.55-15.73,19.66-29.32,37.45-26.35c13.45,2.24,22.49,12.37,32.97,24.1c9.65,10.81,20.59,23.06,37.36,31.66
				c34.58,17.75,65.84,17.76,79.18,17.77l1.52,0c0.82,0,1.48,0.67,1.48,1.49C289.13,91.72,288.47,92.39,287.65,92.39z"/>
		</g>
		<g>
			<path class="st4" d="M287.65,92.39c-0.04,0-0.09,0-0.13-0.01c-0.39-0.03-39.58-3.69-74.98-27.25
				c-16.65-11.09-26.35-25.15-34.92-37.56c-9.48-13.74-16.97-24.59-30.12-24.59c-13.75,0-20.91,13.09-29.97,29.67
				c-7.16,13.1-15.28,27.95-28.62,39.89c-10.8,9.65-28.83,15.89-53.6,18.52C16.97,93.01,1.55,92.15,1.4,92.14
				c-0.82-0.05-1.44-0.75-1.4-1.57c0.05-0.82,0.74-1.45,1.57-1.4c0.6,0.03,60.65,3.24,85.36-18.85c12.96-11.59,20.95-26.2,28-39.09
				C124.08,14.47,131.99,0,147.5,0c14.71,0,22.59,11.42,32.57,25.88c8.41,12.19,17.94,26,34.12,36.77
				c34.74,23.13,73.21,26.73,73.6,26.77c0.82,0.07,1.42,0.79,1.35,1.61C289.06,91.8,288.41,92.39,287.65,92.39z"/>
		</g>
	</g>
	<g>
		<g>
			<g>
				<path class="st5" d="M54,136.2c1.78,0.65,3.2,1.56,4.26,2.73s1.82,2.59,2.28,4.26c0.45,1.67,0.68,3.5,0.68,5.49v20.61
					c-1.21,0.26-3.04,0.57-5.49,0.94c-2.45,0.37-5.21,0.55-8.29,0.55c-2.04,0-3.9-0.19-5.59-0.58c-1.69-0.39-3.13-1.02-4.32-1.88
					c-1.19-0.87-2.12-1.99-2.79-3.38s-1.01-3.1-1.01-5.14c0-1.95,0.38-3.6,1.14-4.94c0.76-1.34,1.79-2.44,3.09-3.28
					s2.81-1.45,4.52-1.82c1.71-0.37,3.5-0.55,5.36-0.55c0.87,0,1.78,0.05,2.73,0.16s1.97,0.29,3.06,0.55v-1.3
					c0-0.91-0.11-1.78-0.33-2.6s-0.6-1.55-1.14-2.18s-1.26-1.12-2.15-1.46c-0.89-0.35-2-0.52-3.35-0.52c-1.82,0-3.49,0.13-5,0.39
					c-1.52,0.26-2.75,0.56-3.71,0.91l-0.97-6.37c1-0.35,2.45-0.69,4.35-1.04c1.91-0.35,3.94-0.52,6.11-0.52
					C50.03,135.23,52.22,135.55,54,136.2z M53.61,164.15v-8.71c-0.43-0.13-1.06-0.26-1.89-0.39s-1.73-0.19-2.73-0.19
					c-0.87,0-1.74,0.06-2.63,0.19s-1.69,0.37-2.41,0.71s-1.29,0.83-1.72,1.46s-0.65,1.42-0.65,2.37c0,1.86,0.58,3.15,1.75,3.87
					c1.17,0.71,2.75,1.07,4.75,1.07C50.51,164.54,52.35,164.41,53.61,164.15z"/>
				<path class="st5" d="M87.89,144.49c-0.89-1.58-2.55-2.37-4.97-2.37c-0.87,0-1.82,0.06-2.86,0.2c-1.04,0.13-1.82,0.24-2.34,0.32
					v27.43h-7.87v-32.89c1.52-0.43,3.5-0.85,5.95-1.24c2.45-0.39,5.04-0.58,7.77-0.58c2.34,0,4.26,0.3,5.75,0.91
					s2.74,1.41,3.74,2.41c0.48-0.35,1.08-0.72,1.82-1.1c0.74-0.39,1.56-0.75,2.47-1.07s1.87-0.6,2.89-0.81s2.05-0.33,3.09-0.33
					c2.64,0,4.82,0.38,6.53,1.14c1.71,0.76,3.05,1.82,4.03,3.19c0.98,1.37,1.65,3.01,2.02,4.94c0.37,1.93,0.55,4.04,0.55,6.34v19.11
					h-7.87v-17.88c0-3.55-0.43-6.12-1.3-7.7c-0.87-1.58-2.54-2.37-5-2.37c-1.26,0-2.45,0.21-3.58,0.62s-1.97,0.81-2.54,1.2
					c0.35,1.08,0.58,2.23,0.71,3.44s0.2,2.51,0.2,3.9v18.79h-7.87v-17.88C89.23,148.64,88.78,146.07,87.89,144.49z"/>
				<path class="st5" d="M154.72,160.25c-0.67,2.17-1.64,4.03-2.89,5.59c-1.26,1.56-2.83,2.77-4.71,3.64
					c-1.89,0.87-4.02,1.3-6.4,1.3c-1.6,0-3.08-0.19-4.42-0.58c-1.34-0.39-2.45-0.82-3.32-1.3v13.2h-7.87v-44.92
					c1.6-0.43,3.58-0.85,5.92-1.24c2.34-0.39,4.81-0.58,7.41-0.58c2.69,0,5.09,0.41,7.21,1.24c2.12,0.82,3.93,2,5.43,3.54
					s2.64,3.4,3.45,5.59s1.2,4.65,1.2,7.38C155.72,155.7,155.39,158.09,154.72,160.25z M145.29,145.04
					c-1.58-1.95-4.13-2.93-7.64-2.93c-0.74,0-1.51,0.03-2.31,0.1s-1.59,0.21-2.37,0.42v19.44c0.69,0.48,1.61,0.92,2.76,1.33
					s2.37,0.62,3.67,0.62c2.86,0,4.95-0.98,6.27-2.92c1.32-1.95,1.98-4.57,1.98-7.87C147.66,149.72,146.87,146.99,145.29,145.04z"/>
				<path class="st5" d="M169.08,169.94c-1.54-0.48-2.76-1.16-3.67-2.05c-0.91-0.89-1.55-1.99-1.92-3.31s-0.55-2.83-0.55-4.52
					v-39.13l7.87-1.3v38.94c0,0.95,0.08,1.75,0.23,2.4c0.15,0.65,0.42,1.2,0.81,1.66c0.39,0.46,0.92,0.8,1.59,1.04
					s1.53,0.42,2.57,0.55l-1.1,6.5C172.56,170.68,170.62,170.42,169.08,169.94z"/>
				<path class="st5" d="M190.04,129.64c-0.95,0.87-2.08,1.3-3.38,1.3c-1.34,0-2.49-0.43-3.45-1.3s-1.43-2.04-1.43-3.51
					c0-1.52,0.48-2.71,1.43-3.58s2.1-1.3,3.45-1.3c1.3,0,2.43,0.43,3.38,1.3s1.43,2.06,1.43,3.58
					C191.47,127.6,190.99,128.77,190.04,129.64z M182.76,170.07v-34h7.87v34H182.76z"/>
				<path class="st5" d="M219.29,120.11c1.39,0.33,2.43,0.62,3.12,0.88l-1.5,6.5c-0.74-0.35-1.59-0.63-2.57-0.85
					c-0.98-0.22-2.03-0.32-3.15-0.32c-1.26,0-2.32,0.18-3.18,0.55c-0.87,0.37-1.56,0.88-2.08,1.53c-0.52,0.65-0.89,1.44-1.11,2.37
					s-0.33,1.94-0.33,3.02v2.28h12.35v6.56H208.5v27.43h-7.87v-36.4c0-4.38,1.15-7.81,3.45-10.3s5.76-3.74,10.4-3.74
					C216.3,119.63,217.9,119.79,219.29,120.11z"/>
				<path class="st5" d="M242.62,171.17c-0.87,1.95-1.75,3.62-2.67,5.01s-1.93,2.54-3.06,3.44c-1.13,0.91-2.38,1.57-3.77,1.98
					s-2.99,0.62-4.81,0.62c-1.21,0-2.42-0.13-3.61-0.39c-1.19-0.26-2.09-0.54-2.7-0.85l1.43-6.31c1.56,0.61,3.1,0.91,4.62,0.91
					c2.04,0,3.63-0.49,4.78-1.46s2.16-2.48,3.02-4.52c-2.47-4.77-4.84-9.97-7.12-15.6c-2.28-5.63-4.3-11.61-6.08-17.94h8.39
					c0.43,1.82,0.96,3.79,1.59,5.92c0.63,2.12,1.31,4.28,2.05,6.47c0.74,2.19,1.52,4.37,2.34,6.53s1.65,4.18,2.47,6.05
					c1.39-3.86,2.69-7.96,3.9-12.32c1.21-4.35,2.32-8.57,3.32-12.64h8.13C251.33,148.99,247.26,160.69,242.62,171.17z"/>
			</g>
		</g>
	</g>
</g>
</svg>
